<svg xmlns="http://www.w3.org/2000/svg" viewBox="0 0 900 520" role="img" aria-labelledby="title desc">
  <title id="title">Active Directory home lab</title>
  <desc id="desc">A friendly diagram showing a domain controller connected to users, groups and a Windows client.</desc>
  <defs><filter id="shadow" x="-20%" y="-20%" width="140%" height="150%"><feDropShadow dx="0" dy="10" stdDeviation="11" flood-color="#38515a" flood-opacity=".16"/></filter></defs>
  <g fill="none" stroke="#4e7e91" stroke-width="4" stroke-linecap="round"><path d="M450 235v52M450 287H202v58M450 287v58M450 287h248v58"/><path d="M450 124V87" stroke-dasharray="7 11"/></g>
  <g filter="url(#shadow)">
    <rect x="327" y="108" width="246" height="130" rx="28" fill="#fff" stroke="#253238" stroke-width="5"/><rect x="354" y="133" width="192" height="80" rx="18" fill="#edf3f2"/>
    <rect x="383" y="149" width="56" height="48" rx="10" fill="#253238"/><circle cx="397" cy="162" r="5" fill="#718e72"/><path d="M407 162h19M395 176h31M395 187h22" stroke="#fff" stroke-width="4" stroke-linecap="round"/>
    <circle cx="486" cy="168" r="18" fill="#f08a70"/><path d="m477 168 7 7 13-16" fill="none" stroke="#fff" stroke-width="5" stroke-linecap="round" stroke-linejoin="round"/>
  </g>
  <g filter="url(#shadow)" stroke="#253238" stroke-width="4">
    <rect x="104" y="342" width="196" height="112" rx="24" fill="#fff"/><circle cx="160" cy="387" r="21" fill="#d8e7eb"/><circle cx="160" cy="380" r="7" fill="#4e7e91"/><path d="M147 399c4-12 22-12 26 0" fill="none"/><circle cx="218" cy="387" r="21" fill="#f4d2c8"/><circle cx="218" cy="380" r="7" fill="#d86f55"/><path d="M205 399c4-12 22-12 26 0" fill="none"/><path d="M139 425h126" stroke="#9aa8aa" stroke-linecap="round"/>
    <rect x="352" y="342" width="196" height="112" rx="24" fill="#fff"/><path d="M400 381h34l12 12h54v35H400z" fill="#dce8d9"/><circle cx="432" cy="405" r="11" fill="#718e72" stroke="none"/><path d="m426 405 4 4 8-9" fill="none" stroke="#fff" stroke-width="3"/>
    <rect x="600" y="342" width="196" height="112" rx="24" fill="#fff"/><rect x="632" y="367" width="132" height="69" rx="12" fill="#edf3f2"/><path d="M649 386h98M649 401h65" stroke="#4e7e91" stroke-linecap="round"/><circle cx="741" cy="417" r="7" fill="#718e72" stroke="none"/>
  </g>
  <g font-family="Roboto,Arial,sans-serif" text-anchor="middle" fill="#253238"><text x="450" y="55" font-size="21" font-weight="800">Domain controller</text><text x="202" y="485" font-size="17" font-weight="700">Users</text><text x="450" y="485" font-size="17" font-weight="700">Security groups</text><text x="698" y="485" font-size="17" font-weight="700">Windows client</text></g>
</svg>
